<svg width="327" height="198" viewBox="0 0 327 198" fill="none" xmlns="http://www.w3.org/2000/svg">
<g id="bank-svg">
<rect width="327" height="198" fill="white"/>
<g id="bank" clip-path="url(#clip0_2_2)">
<path id="structure" d="M163.5 52.3531L207.704 72.75H213.656C214.543 72.75 215.394 73.1023 216.021 73.7294C216.648 74.3564 217 75.2069 217 76.0938V89.4688C217 90.3556 216.648 91.2061 216.021 91.8331C215.394 92.4602 214.543 92.8125 213.656 92.8125H210.312V139.625C211.058 139.625 211.783 139.875 212.37 140.334C212.958 140.793 213.375 141.436 213.556 142.16L216.9 155.535C217.023 156.027 217.032 156.542 216.926 157.039C216.821 157.535 216.603 158.002 216.291 158.402C215.978 158.802 215.578 159.126 215.122 159.349C214.665 159.572 214.164 159.687 213.656 159.688H113.344C112.836 159.687 112.335 159.572 111.878 159.349C111.422 159.126 111.022 158.802 110.709 158.402C110.397 158.002 110.179 157.535 110.074 157.039C109.968 156.542 109.977 156.027 110.1 155.535L113.444 142.16C113.625 141.436 114.042 140.793 114.63 140.334C115.217 139.875 115.942 139.625 116.688 139.625V92.8125H113.344C112.457 92.8125 111.606 92.4602 110.979 91.8331C110.352 91.2061 110 90.3556 110 89.4688V76.0938C110 75.2069 110.352 74.3564 110.979 73.7294C111.606 73.1023 112.457 72.75 113.344 72.75H119.296L163.5 52.3531ZM135.252 72.75H191.741L163.5 59.7094L135.252 72.75ZM123.375 92.8125V139.625H130.062V92.8125H123.375ZM136.75 92.8125V139.625H153.469V92.8125H136.75ZM160.156 92.8125V139.625H166.844V92.8125H160.156ZM173.531 92.8125V139.625H190.25V92.8125H173.531ZM196.938 92.8125V139.625H203.625V92.8125H196.938ZM210.312 86.125V79.4375H116.688V86.125H210.312ZM207.704 146.312H119.296L117.624 153H209.376L207.704 146.312Z" fill="url(#paint0_linear_2_2)" fill-opacity="0.6"/>
</g>
<g id="coin">
<path id="dollar-sign" d="M209.5 152.533C209.728 155.395 211.99 157.624 216.046 157.888V160H217.846V157.873C222.046 157.579 224.5 155.335 224.5 152.077C224.5 149.116 222.622 147.589 219.265 146.797L217.846 146.461V140.71C219.646 140.914 220.792 141.898 221.068 143.26H224.224C223.996 140.503 221.632 138.346 217.846 138.112V136H216.046V138.157C212.461 138.508 210.016 140.665 210.016 143.716C210.016 146.416 211.834 148.132 214.855 148.837L216.046 149.131V155.233C214.201 154.954 212.98 153.943 212.704 152.533H209.5V152.533ZM216.031 146.035C214.261 145.624 213.301 144.787 213.301 143.527C213.301 142.117 214.336 141.061 216.046 140.752V146.032H216.031V146.035ZM218.107 149.614C220.258 150.112 221.251 150.919 221.251 152.344C221.251 153.97 220.015 155.086 217.846 155.29V149.554L218.107 149.614V149.614Z" fill="#FF0000"/>
<path id="inner-circle" d="M217 164.5C212.624 164.5 208.427 162.762 205.333 159.667C202.238 156.573 200.5 152.376 200.5 148C200.5 143.624 202.238 139.427 205.333 136.333C208.427 133.238 212.624 131.5 217 131.5C221.376 131.5 225.573 133.238 228.667 136.333C231.762 139.427 233.5 143.624 233.5 148C233.5 152.376 231.762 156.573 228.667 159.667C225.573 162.762 221.376 164.5 217 164.5ZM217 166C219.364 166 221.704 165.534 223.888 164.63C226.072 163.725 228.056 162.399 229.728 160.728C231.399 159.056 232.725 157.072 233.63 154.888C234.534 152.704 235 150.364 235 148C235 145.636 234.534 143.296 233.63 141.112C232.725 138.928 231.399 136.944 229.728 135.272C228.056 133.601 226.072 132.275 223.888 131.37C221.704 130.466 219.364 130 217 130C212.226 130 207.648 131.896 204.272 135.272C200.896 138.648 199 143.226 199 148C199 152.774 200.896 157.352 204.272 160.728C207.648 164.104 212.226 166 217 166V166Z" fill="#FFB800"/>
<path id="outer-circle" d="M217 169C211.43 169 206.089 166.788 202.151 162.849C198.212 158.911 196 153.57 196 148C196 142.43 198.212 137.089 202.151 133.151C206.089 129.212 211.43 127 217 127C222.57 127 227.911 129.212 231.849 133.151C235.788 137.089 238 142.43 238 148C238 153.57 235.788 158.911 231.849 162.849C227.911 166.788 222.57 169 217 169ZM217 172C223.365 172 229.47 169.471 233.971 164.971C238.471 160.47 241 154.365 241 148C241 141.635 238.471 135.53 233.971 131.029C229.47 126.529 223.365 124 217 124C210.635 124 204.53 126.529 200.029 131.029C195.529 135.53 193 141.635 193 148C193 154.365 195.529 160.47 200.029 164.971C204.53 169.471 210.635 172 217 172V172Z" fill="#737373"/>
</g>
</g>
<defs>
<linearGradient id="paint0_linear_2_2" x1="163.5" y1="52.3531" x2="163.5" y2="159.688" gradientUnits="userSpaceOnUse">
<stop/>
<stop offset="1" stop-opacity="0"/>
</linearGradient>
<clipPath id="clip0_2_2">
<rect width="107" height="107" fill="white" transform="translate(110 46)"/>
</clipPath>
</defs>
</svg>
