<svg width="327" height="198" viewBox="0 0 327 198" fill="none" xmlns="http://www.w3.org/2000/svg">
<g id="g-classroom">
<rect width="327" height="198" fill="white"/>
<g id="laptop-icon">
<path id="Vector" d="M192.656 64.8125C193.576 64.8125 194.459 65.178 195.109 65.8285C195.76 66.479 196.125 67.3613 196.125 68.2812V120.312H112.875V68.2812C112.875 67.3613 113.24 66.479 113.891 65.8285C114.541 65.178 115.424 64.8125 116.344 64.8125H192.656ZM116.344 57.875C113.584 57.875 110.937 58.9714 108.985 60.9229C107.034 62.8745 105.938 65.5213 105.938 68.2812V127.25H203.062V68.2812C203.062 65.5213 201.966 62.8745 200.015 60.9229C198.063 58.9714 195.416 57.875 192.656 57.875H116.344ZM99 130.719H210C210 133.479 208.904 136.126 206.952 138.077C205.001 140.029 202.354 141.125 199.594 141.125H109.406C106.646 141.125 103.999 140.029 102.048 138.077C100.096 136.126 99 133.479 99 130.719V130.719Z" fill="#FFB932"/>
</g>
<g id="google-icon" clip-path="url(#clip0_2_2)">
<path id="Vector_2" d="M246.924 117.921C247.35 120.371 247.562 122.853 247.558 125.339C247.558 136.445 243.589 145.834 236.681 152.19H236.69C230.65 157.77 222.346 161 212.5 161C202.82 161 193.536 157.154 186.691 150.309C179.846 143.464 176 134.18 176 124.5C176 114.82 179.846 105.536 186.691 98.6906C193.536 91.8455 202.82 88 212.5 88C221.561 87.8939 230.311 91.2979 236.918 97.4991L226.498 107.92C222.731 104.329 217.704 102.363 212.5 102.445C202.978 102.445 194.889 108.869 192.005 117.519C190.476 122.052 190.476 126.961 192.005 131.494H192.019C194.916 140.131 202.992 146.555 212.514 146.555C217.432 146.555 221.657 145.296 224.933 143.069H224.919C226.821 141.809 228.448 140.177 229.702 138.27C230.956 136.364 231.811 134.224 232.215 131.978H212.5V117.925H246.924V117.921Z" fill="#FF3D3D"/>
</g>
</g>
<defs>
<clipPath id="clip0_2_2">
<rect width="73" height="73" fill="white" transform="translate(176 88)"/>
</clipPath>
</defs>
</svg>
